# xmcd
#
# Track frame offsets:
# 150
# 13332
# 25677
# 40590
# 51817
# 68930
# 95450
# 112540
# 126310
# 143630
# 156225
# 174777
# 193650
# 210887
# 239298
#
# Disc length: 3491 seconds
#
#
# Revision: 3
# Processed by: cddbd v1.5.1PL2 Copyright (c) Steve Scherf et al.
# Submitted via: FreeRIP 2.30 
#
DISCID=ba0da10f
DTITLE=Keith Urban  - in The Ranch
DYEAR=2004
DGENRE=Country
TTITLE0=Walkin' The Country
TTITLE1=Homespun Love
TTITLE2=Just Some Love
TTITLE3=Some Days You Gotta Dance
TTITLE4=My Last Name
TTITLE5=Desiree
TTITLE6=Freedom's Finally Mine
TTITLE7=Hank Don't Fail Me Now
TTITLE8=Tangled Up In Love
TTITLE9=Clutterbilly
TTITLE10=Man Of The House
TTITLE11=Ghost In The Guitar
TTITLE12=Stuck In The Middle (bonus track)
TTITLE13=Billy (bonus track)
TTITLE14=DATA
EXTD=YEAR: 2004
EXTT0=
EXTT1=
EXTT2=
EXTT3=
EXTT4=
EXTT5=
EXTT6=
EXTT7=
EXTT8=
EXTT9=
EXTT10=
EXTT11=
EXTT12=
EXTT13=
EXTT14=
PLAYORDER=
